# xmcd
#
# Track frame offsets:
#	150
#	17183
#	36065
#	53891
#	66738
#	83802
#	98006
#	114249
#	125061
#	143800
#	156877
#	170124
#	186146
#	199925
#	214649
#	229947
#	242943
#	257159
#	273815
#	288246
#
# Disc length: 4059 seconds
#
# Revision: 1
# Processed by: cddbd v1.5.2PL0 Copyright (c) Steve Scherf et al.
# Submitted via: audiograbber 1.83.01
#
DISCID=2b0fd914
DTITLE=Various Artist - Summer jams Top 100 disc 2/5
DYEAR=2006
DGENRE=Top40
TTITLE0=The Underdog Project vs. The Sunclub - Summer Jam 2003 (DJ F.R.A.N.K.'s
TTITLE0=Summermix Radio Version)
TTITLE1=Summer Love - Remember
TTITLE2=Moony - Dove (I'll Be Loving You)
TTITLE3=In-Grid - Tu Es Foutu
TTITLE4=Svenson and Gielen - Beachbreeze (Remember The Summer)
TTITLE5=Jaybee - Shattered Dreams
TTITLE6=De'Lacy - Hideaway 2006
TTITLE7=Beach Boys, The   	Surfin' U.S.A.
TTITLE8=Avant Garde - Get Down
TTITLE9=Rmxcrw - Turn Me On
TTITLE10=Playahitty - The Summer Is Magic
TTITLE11=Junior Jack - E Samba
TTITLE12=Indigo - Sunshine
TTITLE13=Mr. Sosa  and  The Yayo - Cochabamba
TTITLE14=DJ F.R.A.N.K. - Nunu
TTITLE15=Sandwich - On The Beach
TTITLE16=Mr. Z - Booty Killer
TTITLE17=Praise Cats - Shined On Me
TTITLE18=Tiësto - Love Comes Again
TTITLE19=Justin K and DJ K-Mixx - Northern Lights
EXTD=
EXTT0=
EXTT1=
EXTT2=
EXTT3=
EXTT4=
EXTT5=
EXTT6=
EXTT7=
EXTT8=
EXTT9=
EXTT10=
EXTT11=
EXTT12=
EXTT13=
EXTT14=
EXTT15=
EXTT16=
EXTT17=
EXTT18=
EXTT19=
PLAYORDER=
